<?xml version="1.0" encoding="UTF-8"?>
<svg xmlns="http://www.w3.org/2000/svg" viewBox="0 0 414.08 413.98">
  <g fill="#4162ef">
    <path d="M341.06,0h-68.07v33.46h68.07c21.83,0,39.56,17.73,39.56,39.48v68.16h33.46v-68.16C414.08,32.71,381.3.01,341.07.01h-.01ZM0,72.92v68.16h33.46v-68.16c0-21.75,17.73-39.48,39.48-39.48h68.16V0h-68.16C32.7,0,0,32.7,0,72.92ZM380.61,272.89v68.16c0,21.75-17.73,39.48-39.56,39.48h-68.07v33.46h68.07c40.23,0,73.01-32.71,73.01-72.92v-68.16h-33.46.01ZM33.46,341.06v-68.16H0v68.16c0,40.23,32.7,72.92,72.92,72.92h68.16v-33.46h-68.16c-21.75,0-39.48-17.73-39.48-39.48h.01Z"/>
    <path d="M138.58,69.64v125.52h23.37v-39.61h16.47v39.61h23.37v-125.52h-63.22ZM161.94,124.68v-24.17h16.47v24.17h-16.47Z"/>
    <polygon points="275.41 194.48 212.19 194.48 212.19 163.59 252.04 163.59 252.04 147.49 212.19 147.49 212.19 69.61 275.66 69.61 275.66 100.49 235.55 100.49 235.55 116.61 275.41 116.61 275.41 194.48"/>
    <polygon points="346.35 68.91 346.35 195.9 322.98 195.9 322.98 147.88 309.43 147.88 309.43 195.9 286.06 195.9 286.06 68.91 309.43 68.91 309.43 117 322.98 117 322.98 68.91 346.35 68.91"/>
    <polygon points="126.42 194.48 67.72 194.48 67.72 69.61 126.42 69.61 126.42 100.49 91.09 100.49 91.09 163.59 126.42 163.59 126.42 194.48"/>
    <polygon points="126.42 344.07 67.72 344.07 67.72 217.66 91.09 217.66 91.09 313.19 126.42 313.19 126.42 344.07"/>
    <path d="M201.56,343.2h-62.76v-124.59l62.76-.38v124.97ZM162.18,312.33h16.02v-63.07l-16.02.1v62.96h0Z"/>
    <path d="M214.56,218.27v34.99h36.9v-34.99h-36.9ZM246.2,248.26h-26.35v-24.99h26.35v24.99Z"/>
    <path d="M309.45,218.27v34.99h36.9v-34.99h-36.9ZM341.08,248.26h-26.35v-24.99h26.35v24.99Z"/>
    <path d="M225.1,228.26h15.82v14.99h-15.82v-14.99Z"/>
    <path d="M304.18,238.25v-14.99h-15.82v-5h-5.27v10h-5.27v-10h-21.08v10h5.27v5h5.27v-10h5.27v10h10.55v5h-5.27v5h15.82v5h5.27v10h5.27v-14.99h-5.27v-5h5.27-.01ZM288.36,233.26v-5h10.55v5h-10.55Z"/>
    <path d="M320,228.26h15.82v14.99h-15.82v-14.99Z"/>
    <path d="M256.73,233.26h5.27v10h15.82v5h-5.27v5h-5.27v-5h-5.27v5h-5.27v-19.99Z"/>
    <path d="M277.82,248.26h5.27v5h-5.27v-5Z"/>
    <path d="M288.36,248.26h5.27v14.99h-5.27v-5h-5.27v-5h5.27v-5h0Z"/>
    <path d="M262,253.24h5.27v5h-5.27v-5Z"/>
    <path d="M272.55,253.24h5.27v5h-5.27v-5Z"/>
    <path d="M230.38,258.24h5.27v5h-5.27v-5Z"/>
    <path d="M246.2,258.24h5.27v5h-5.27v-5Z"/>
    <path d="M277.82,258.24h5.27v5h-5.27v-5Z"/>
    <path d="M314.72,258.24h15.81v5h-10.55v5h10.55v-5h5.27v10h-21.09v-14.99h.01Z"/>
    <path d="M335.81,258.24h10.55v14.99h-5.27v-10h-5.27v-5h0Z"/>
    <path d="M214.56,263.24h15.82v5h-15.82v-5Z"/>
    <path d="M235.65,263.24h10.55v5h-5.27v5h-5.27v-10h0Z"/>
    <path d="M256.73,263.24h5.27v5h-5.27v-5Z"/>
    <path d="M283.1,263.24h5.27v5h-5.27v-5Z"/>
    <path d="M304.18,263.24h5.27v10h-10.55v-5h5.27v-5h0Z"/>
    <path d="M246.2,268.24h10.55v5h5.27v14.99h-5.27v5h5.27v-5h5.27v10h-10.55v5h-21.08v-10h5.27v5h10.55v-5h-5.27v-5h5.27v-5h-5.27v-5h5.27v-5h-5.27v-5h-.01Z"/>
    <path d="M214.56,273.24h5.27v5h-5.27v-5Z"/>
    <path d="M230.38,273.24h5.27v10h10.55v5h-10.55v5h-10.55v-5h-5.27v-10h5.27v5h5.27v-10h0Z"/>
    <path d="M309.45,273.24h5.27v5h-5.27v-5Z"/>
    <path d="M314.72,278.24h15.81v5h-10.55v5h-5.27v-10h.01Z"/>
    <path d="M335.81,278.24h5.27v5h5.27v10h-15.82v-10h5.27v-5h0Z"/>
    <path d="M267.28,283.23h5.27v5h-5.27v-5h0Z"/>
    <path d="M214.56,288.23h5.27v5h-5.27v-5Z"/>
    <path d="M272.55,288.23h5.27v5h-5.27v-5Z"/>
    <path d="M219.83,293.23h5.27v10h-10.55v-5h5.27v-5h0Z"/>
    <path d="M256.73,303.23h5.27v5h-5.27v-5Z"/>
    <path d="M262,308.23h5.27v19.99h5.27v-10h15.82v5h-5.27v14.99h5.27v5h-15.82v-5h-5.27v-5h-5.27v-5h-5.27v-5h5.27v-14.99Z"/>
    <path d="M309.45,308.23h5.27v5h-5.27v-5Z"/>
    <path d="M214.56,308.23v34.99h36.9v-34.99h-36.9ZM246.2,338.21h-26.35v-24.99h26.35v24.99Z"/>
    <path d="M225.1,318.22h15.82v14.99h-15.82v-14.99Z"/>
    <path d="M341.08,298.23v5h-5.27v-5h-5.27v5h-5.27v-10h-10.54v5h-10.55v-5h10.55v-5h-5.27v-10h-10.55v5h5.27v5h-5.27v-5h-5.27v-5h5.27v-5h-5.27v-5h-5.27v5h-15.82v-5h5.27v-5h-5.27v-5h-5.27v10h-5.27v5h5.27v5h5.27v5h10.55v-5h5.27v5h-5.27v5h5.27v5h-10.55v10h-5.27v5h15.82v5h5.27v-10h-10.55v-5h10.55v-5h5.27v5h-5.27v5h5.27v10h-5.27v5h5.27v5h5.27v14.99h10.54v-5h15.81v-5h10.55v-10h-5.27v5h-10.55v-14.99h5.27v10h5.27v-10h5.27v5h5.26v-14.99h-5.27.02ZM320,328.21h-10.55v-5h10.55v5ZM320,318.22h-15.81v-14.99h15.81v14.99Z"/>
    <path d="M288.36,328.21h5.27v5h-5.27v-5Z"/>
    <path d="M341.08,328.21h5.27v5h-5.27v-5Z"/>
    <path d="M293.63,333.22h5.27v10h-5.27v-10Z"/>
    <path d="M262,338.21h5.27v5h-5.27v-5Z"/>
    <path d="M320,338.21h10.55v5h-10.55v-5Z"/>
    <path d="M335.81,338.21h10.55v5h-10.55v-5Z"/>
  </g>
</svg>
