<?xml version="1.0" encoding="utf-8"?>
<!-- Generator: Adobe Illustrator 28.3.0, SVG Export Plug-In . SVG Version: 6.00 Build 0)  -->
<svg version="1.1" id="Capa_1" xmlns="http://www.w3.org/2000/svg" xmlns:xlink="http://www.w3.org/1999/xlink" x="0px" y="0px"
	 viewBox="0 0 213.7 188.1" style="enable-background:new 0 0 213.7 188.1;" xml:space="preserve">
<style type="text/css">
	.st0{fill:#000105;}
	.st1{fill:#FDF135;}
</style>
<path class="st0" d="M0,188.1L0.1,75.8L213.7,0l-0.1,112.3L0,188.1z"/>
<polygon class="st1" points="15.3,87.1 15.3,165.9 44.2,155.7 44.2,76.8 "/>
<polygon class="st1" points="198.4,22.2 170,32.3 170,111.1 198.4,101 "/>
<polygon class="st1" points="98.4,57.6 69.9,67.7 69.9,95.8 98.4,131.9 "/>
<polygon class="st1" points="164.9,34 136.4,44.2 136.4,72.2 164.9,108.3 "/>
<polygon class="st1" points="49.2,124.4 67.4,147.4 96.1,137.3 49.2,78.1 "/>
<polygon class="st1" points="103.3,55.8 103.3,85.3 114.6,99.4 103.3,103.4 103.3,124.2 127.4,115.6 133.9,123.8 162.8,113.6 
	114,52 "/>
</svg>
